<svg width="102" height="102" viewBox="0 0 102 102" fill="none" xmlns="http://www.w3.org/2000/svg">
<path d="M93.1875 1H8.8125C4.50488 1 1 4.50488 1 8.8125V93.1875C1 97.4951 4.50488 101 8.8125 101H93.1875C97.4951 101 101 97.4951 101 93.1875V8.8125C101 4.50488 97.4951 1 93.1875 1ZM4.125 8.8125C4.125 6.22773 6.22773 4.125 8.8125 4.125H38.5V19.75H4.125V8.8125ZM97.875 93.1875C97.875 95.7723 95.7723 97.875 93.1875 97.875H8.8125C6.22773 97.875 4.125 95.7723 4.125 93.1875V22.875H97.875V93.1875ZM97.875 19.75H41.625V4.125H93.1875C95.7723 4.125 97.875 6.22773 97.875 8.8125V19.75Z" fill="white" stroke="white"/>
<path d="M16.625 10.375H10.375C9.51135 10.375 8.8125 11.0746 8.8125 11.9375C8.8125 12.8004 9.51135 13.5 10.375 13.5H16.625C17.4887 13.5 18.1875 12.8004 18.1875 11.9375C18.1875 11.0746 17.4887 10.375 16.625 10.375Z" fill="white" stroke="white"/>
<path d="M32.25 10.375H26C25.1363 10.375 24.4375 11.0746 24.4375 11.9375C24.4375 12.8004 25.1363 13.5 26 13.5H32.25C33.1137 13.5 33.8125 12.8004 33.8125 11.9375C33.8125 11.0746 33.1137 10.375 32.25 10.375Z" fill="white" stroke="white"/>
<path d="M51 76.6445C67.7938 76.6445 81.0216 62.0373 81.5762 61.4162C82.1057 60.8226 82.1057 59.9285 81.5762 59.335C81.0208 58.7139 67.793 44.1074 51 44.1074C34.2071 44.1074 20.9785 58.7139 20.4238 59.335C19.8944 59.9285 19.8944 60.8227 20.4238 61.4162C20.9793 62.0372 34.2071 76.6445 51 76.6445ZM51 47.2324C63.8907 47.2324 74.9298 57.101 78.2364 60.3756C74.9298 63.6502 63.8901 73.5195 51 73.5195C38.1078 73.5195 27.0684 63.6486 23.7617 60.374C27.0637 57.0994 38.0836 47.2324 51 47.2324Z" fill="white" stroke="white"/>
<path d="M51 37.8242C51.8637 37.8242 52.5625 37.1246 52.5625 36.2617V29.1259C52.5625 28.2631 51.8637 27.5634 51 27.5634C50.1363 27.5634 49.4375 28.2631 49.4375 29.1259V36.2617C49.4375 37.1246 50.1363 37.8242 51 37.8242Z" fill="white" stroke="white"/>
<path d="M51 82.9277C50.1363 82.9277 49.4375 83.6266 49.4375 84.4902V91.6252C49.4375 92.4888 50.1363 93.1877 51 93.1877C51.8637 93.1877 52.5625 92.4888 52.5625 91.6252V84.4902C52.5625 83.6266 51.8637 82.9277 51 82.9277Z" fill="white" stroke="white"/>
<path d="M31.0958 42.0117C31.3857 42.513 31.9106 42.793 32.4507 42.793C32.7163 42.793 32.9848 42.7258 33.2305 42.5832C33.9782 42.1521 34.2345 41.1961 33.8027 40.4492L30.2337 34.2701C29.8019 33.5224 28.8437 33.2638 28.099 33.6986C27.3513 34.1297 27.0949 35.0857 27.5268 35.8326L31.0958 42.0117Z" fill="white" stroke="white"/>
<path d="M70.9043 78.7383C70.4709 77.9891 69.5127 77.7343 68.7695 78.1661C68.0218 78.5979 67.7655 79.5531 68.1973 80.3008L71.7662 86.4807C72.0562 86.9827 72.5811 87.262 73.1212 87.262C73.3867 87.262 73.6553 87.1948 73.901 87.0529C74.6486 86.6211 74.905 85.6659 74.4732 84.9182L70.9043 78.7383Z" fill="white" stroke="white"/>
<path d="M33.2305 78.166C32.4843 77.7342 31.5276 77.989 31.0957 78.7382L27.5268 84.9181C27.095 85.6658 27.3513 86.621 28.099 87.0529C28.3446 87.1948 28.6132 87.2619 28.8787 87.2619C29.4189 87.2619 29.9438 86.9827 30.2337 86.4807L33.8026 80.3008C34.2344 79.5531 33.9781 78.5979 33.2304 78.166H33.2305Z" fill="white" stroke="white"/>
<path d="M68.7696 42.584C69.0152 42.7266 69.2838 42.7938 69.5493 42.7938C70.0894 42.7938 70.6143 42.5138 70.9043 42.0125L74.4732 35.8334C74.905 35.0865 74.6487 34.1305 73.901 33.6994C73.1549 33.2646 72.1981 33.5232 71.7662 34.2709L68.1973 40.45C67.7655 41.1969 68.0218 42.1529 68.7695 42.584H68.7696Z" fill="white" stroke="white"/>
<path d="M60.961 60.375C60.961 59.7723 60.9 59.1604 60.7748 58.5012C60.6924 58.0724 60.4346 57.6955 60.0623 57.4651C59.6884 57.2362 59.2398 57.1737 58.8171 57.2896C58.2114 57.4605 57.6041 57.5429 56.9571 57.5429C52.944 57.5429 51.2458 54.5508 51.0092 51.9886C50.968 51.5507 50.7453 51.1509 50.3959 50.8854C50.0434 50.6215 49.5993 50.5124 49.1675 50.5963C44.4572 51.4729 41.0392 55.5851 41.0392 60.3748C41.0392 65.868 45.507 70.3357 51.0001 70.3357C56.4933 70.3357 60.9611 65.868 60.9611 60.3748L60.961 60.375ZM44.1641 60.375C44.1641 57.6238 45.809 55.1992 48.2397 54.1295C49.2224 57.6146 52.085 60.6679 56.9571 60.6679C57.2501 60.6679 57.5415 60.6557 57.8314 60.6298C57.6971 64.2812 54.6836 67.2109 51 67.2109C47.231 67.2109 44.164 64.1439 44.164 60.3749L44.1641 60.375Z" fill="white" stroke="white"/>
<path fill-rule="evenodd" clip-rule="evenodd" d="M52.483 12.0667C52.483 9.34803 54.687 7.14407 57.4057 7.14407H64.7048C65.6423 7.14407 66.4023 7.90406 66.4023 8.84155C66.4023 9.77903 65.6423 10.539 64.7048 10.539H57.4057C56.562 10.539 55.878 11.223 55.878 12.0667C55.878 12.9105 56.562 13.5945 57.4057 13.5945H64.7048C65.6423 13.5945 66.4023 14.3545 66.4023 15.2919C66.4023 16.2294 65.6423 16.9894 64.7048 16.9894H57.4057C54.687 16.9894 52.483 14.7855 52.483 12.0667ZM72.8527 8.84155C72.8527 7.90406 73.6127 7.14407 74.5502 7.14407H81.8493C84.568 7.14407 86.772 9.34803 86.772 12.0667C86.772 14.7855 84.568 16.9894 81.8493 16.9894H74.5502C73.6127 16.9894 72.8527 16.2294 72.8527 15.2919C72.8527 14.3545 73.6127 13.5945 74.5502 13.5945H81.8493C82.693 13.5945 83.377 12.9105 83.377 12.0667C83.377 11.223 82.693 10.539 81.8493 10.539H74.5502C73.6127 10.539 72.8527 9.77903 72.8527 8.84155ZM65.2141 12.0667C65.2141 11.1293 65.9741 10.3693 66.9115 10.3693H72.3435C73.2809 10.3693 74.0409 11.1293 74.0409 12.0667C74.0409 13.0042 73.2809 13.7642 72.3435 13.7642H66.9115C65.9741 13.7642 65.2141 13.0042 65.2141 12.0667Z" fill="white"/>
</svg>
