<svg width="73" height="73" viewBox="0 0 73 73" fill="none" xmlns="http://www.w3.org/2000/svg">
<path d="M0 36.5C0 16.3416 16.3416 0 36.5 0H68C70.7614 0 73 2.23858 73 5V36.5C73 56.6584 56.6584 73 36.5 73C16.3416 73 0 56.6584 0 36.5Z" fill="black"/>
<path d="M15 35.0001V52.1429H32.1429V35.0001H20.7143C20.7143 28.6985 25.8413 23.5715 32.1429 23.5715V17.8572C22.6897 17.8572 15 25.5469 15 35.0001Z" fill="#FFFFFF"/>
<path d="M55.0001 23.5715V17.8572C45.5469 17.8572 37.8572 25.5469 37.8572 35.0001V52.1429H55.0001V35.0001H43.5715C43.5715 28.6985 48.6985 23.5715 55.0001 23.5715Z" fill="#FFFFFF"/>
</svg>
