<svg xmlns="http://www.w3.org/2000/svg" width="128" height="42.32">
  <path d="M8.56 8.78a1.67 1.67 0 011.67 1.67v14.73a6.47 6.47 0 001.27 4.3A4.53 4.53 0 0015.18 31a4.55 4.55 0 003.68-1.49 6.47 6.47 0 001.26-4.3V10.45a1.68 1.68 0 011.68-1.67h3.52A1.68 1.68 0 0127 10.45v14.73A13.53 13.53 0 0125.43 32a10.24 10.24 0 01-4.28 4.15A13.33 13.33 0 0115 37.48a12.82 12.82 0 01-6-1.36A9.67 9.67 0 014.89 32a14.2 14.2 0 01-1.49-6.82V10.45a1.67 1.67 0 011.67-1.67zM81.55 5.86a4.85 4.85 0 016 0 3.37 3.37 0 011.12 2.6A3.29 3.29 0 0187.5 11a4.85 4.85 0 01-6 0 3.3 3.3 0 01-1.13-2.55 3.38 3.38 0 011.18-2.59zm6.39 10.58v19.09a1.68 1.68 0 01-1.68 1.67h-3.52a1.68 1.68 0 01-1.68-1.67V16.44a1.68 1.68 0 011.68-1.67h3.52a1.68 1.68 0 011.68 1.67zM107.14 37.2a1.65 1.65 0 01-1.37-.71l-6.21-8.82v7.86a1.68 1.68 0 01-1.68 1.67h-3.52a1.68 1.68 0 01-1.68-1.67V9.13a1.68 1.68 0 011.68-1.68h3.52a1.68 1.68 0 011.68 1.68v9.6a1.67 1.67 0 003 1l3.2-4.29a1.67 1.67 0 011.34-.67h3.74a1.67 1.67 0 011.3 2.73l-6 7.42a1.69 1.69 0 000 2.12l6.12 7.42A1.67 1.67 0 01111 37.2zM117.52 5.86a4.29 4.29 0 013-1 4.23 4.23 0 013 1 3.38 3.38 0 011.13 2.6 3.3 3.3 0 01-1.18 2.54 4.23 4.23 0 01-3 1 4.29 4.29 0 01-3-1 3.29 3.29 0 01-1.12-2.55 3.37 3.37 0 011.17-2.59zm6.4 10.58v19.09a1.68 1.68 0 01-1.68 1.67h-3.52a1.68 1.68 0 01-1.72-1.67V16.44a1.68 1.68 0 011.68-1.67h3.52a1.68 1.68 0 011.72 1.67zM57.32 36l2.14-7.85a1.67 1.67 0 013.23 0L64.81 36a1.68 1.68 0 001.62 1.24h5.09a1.68 1.68 0 001.63-1.26L78 16.86a1.68 1.68 0 00-1.63-2.09h-2.8a1.67 1.67 0 00-1.64 1.37l-1.38 7.48a1.67 1.67 0 01-3.26.13L65.23 16a1.67 1.67 0 00-1.61-1.24h-4.74A1.68 1.68 0 0057.26 16l-3.11 12a1.68 1.68 0 01-3 .53l-13-19.08a1.67 1.67 0 00-1.39-.73h-4.07a1.67 1.67 0 00-1.38 2.61l17 25.08a1.66 1.66 0 001.38.73h6A1.67 1.67 0 0057.32 36z"/>
  <path d="M53.36 8.78H49.5a1.66 1.66 0 00-1.44.83l-3 5.08a1.66 1.66 0 00.05 1.78L47 19.28a1.66 1.66 0 002.8-.05l5-7.89a1.68 1.68 0 00-1.44-2.56zM32.82 37.2h3.91a1.68 1.68 0 001.44-.83l3.1-5.37a1.68 1.68 0 00-.06-1.78l-1.92-2.85a1.67 1.67 0 00-2.81.05l-5.08 8.22a1.68 1.68 0 001.42 2.56z"/>
</svg>